<svg width="823" height="261" viewBox="0 0 823 261" fill="none" xmlns="http://www.w3.org/2000/svg">
<path d="M357.066 184.18H385.033L336.283 128.786L381.634 76.0182H354.594L318.823 119.824H308.625V76.0182H287.07V184.18H308.625V139.679H318.591L357.066 184.18Z" fill="white"/>
<path d="M456.293 76.0182H430.025L387.92 184.18H410.402L419.827 158.994H465.951L475.376 184.18H498.399L456.293 76.0182ZM442.928 97.3415L458.534 139.138H427.244L442.928 97.3415Z" fill="white"/>
<path d="M588.147 120.519H533.911V95.8736H591.778V76.0182H512.356V184.18H533.911V140.374H588.147V120.519Z" fill="white"/>
<path d="M681.339 184.18H709.307L660.557 128.786L705.908 76.0182H678.867L643.097 119.824H632.898V76.0182H611.343V184.18H632.898V139.679H642.865L681.339 184.18Z" fill="white"/>
<path d="M780.567 76.0182H754.299L712.193 184.18H734.675L744.101 158.994H790.224L799.65 184.18H822.673L780.567 76.0182ZM767.201 97.3415L782.807 139.138H751.518L767.201 97.3415Z" fill="white"/>
<rect width="107.746" height="107.746" transform="matrix(0.866025 -0.5 2.20305e-08 1 145.284 130.099)" fill="#BB2828"/>
<rect width="107.746" height="107.746" transform="matrix(0.866025 -0.5 0.866025 0.5 52.0835 76.2261)" fill="#F03131"/>
<rect width="107.746" height="107.746" transform="matrix(0.866025 0.5 -2.20305e-08 1 52.0835 76.2261)" fill="#F73F3F"/>
<rect width="31.1036" height="31.1036" transform="matrix(0.866025 -0.5 2.20305e-08 1 78.988 153.122)" fill="#414141"/>
<rect width="31.1036" height="31.1036" transform="matrix(0.866025 -0.5 0.866025 0.5 52.0835 137.57)" fill="#3A3A3A"/>
<rect width="31.1036" height="31.1036" transform="matrix(0.866025 0.5 -2.20305e-08 1 52.0835 137.57)" fill="#505050"/>
<rect width="36.5418" height="36.5418" transform="matrix(0.866025 -0.5 0.866025 0.5 113.638 76.1548)" fill="#3A3A3A"/>
<rect width="31.1036" height="31.1036" transform="matrix(0.866025 -0.5 2.20305e-08 1 105.925 168.745)" fill="#343434"/>
<rect width="31.1036" height="31.1036" transform="matrix(0.866025 -0.5 0.866025 0.5 79.02 153.193)" fill="#3A3A3A"/>
<rect width="31.1036" height="31.1036" transform="matrix(0.866025 0.5 -2.20305e-08 1 79.02 153.193)" fill="#505050"/>
<rect width="36.5705" height="36.5705" transform="matrix(0.866025 -0.5 2.20305e-08 1 179.55 145.9)" fill="#3A3A3A"/>
<path d="M90.8403 221.988L117.777 206.436L117.777 221.378L90.8403 236.93L90.8403 221.988Z" fill="#343434"/>
<path fill-rule="evenodd" clip-rule="evenodd" d="M79.0232 215.147L90.8721 221.988L117.809 206.436L105.96 199.595L79.0232 215.147Z" fill="#3A3A3A"/>
<path fill-rule="evenodd" clip-rule="evenodd" d="M79.02 230.087L90.8721 236.93V221.988L79.02 215.145V230.087Z" fill="#505050"/>
<path d="M25.1152 184.277L52.0517 168.725L52.0517 183.667L25.1152 199.219L25.1152 184.277Z" fill="#343434"/>
<path fill-rule="evenodd" clip-rule="evenodd" d="M13.2981 177.436L25.147 184.277L52.0835 168.725L40.2346 161.884L13.2981 177.436Z" fill="#3A3A3A"/>
<path fill-rule="evenodd" clip-rule="evenodd" d="M13.2949 192.376L25.147 199.219V184.277L13.2949 177.434V192.376Z" fill="#505050"/>
<rect width="9.42778" height="9.42778" transform="matrix(0.866025 -0.5 2.20305e-08 1 106.031 168.726)" fill="#C8C8C8"/>
<rect width="9.42778" height="9.42778" transform="matrix(0.866025 -0.5 0.866025 0.5 97.8755 164.012)" fill="#EFEFEF"/>
<rect width="9.42778" height="9.42778" transform="matrix(0.866025 0.5 -2.20305e-08 1 97.8755 164.012)" fill="white"/>
<rect width="9.42778" height="9.42778" transform="matrix(0.866025 -0.5 0.866025 0.5 52.0835 137.507)" fill="#EFEFEF"/>
<rect width="9.42778" height="9.42778" transform="matrix(0.866025 0.5 -2.20305e-08 1 52.0835 137.507)" fill="white"/>
</svg>
